# xmcd
#
# Track frame offsets:
#	150
#	44643
#	58943
#	115328
#
# Disc length: 2109 seconds
#
# Revision: 1
# Processed by: cddbd v1.5.2PL0 Copyright (c) Steve Scherf et al.
# Submitted via: audiograbber 1.83.01
#
DISCID=39083b04
DTITLE=Grateful Dead - 75-06-17 Winterland Arena, San Francisco CA
DYEAR=1900
DGENRE=
TTITLE0=Peggy-O
TTITLE1=Me and My Uncle
TTITLE2=Help On The Way > Slipknot!
TTITLE3=Franklin's Tower
EXTD=
EXTT0=
EXTT1=
EXTT2=
EXTT3=
PLAYORDER=
